<svg width="253" height="78" viewBox="0 0 253 78" fill="none" xmlns="http://www.w3.org/2000/svg">
<path d="M6.215 50C4.895 50 3.94167 49.6517 3.355 48.955C2.76833 48.2583 2.56667 47.2683 2.75 45.985L7.7 14.635C7.88333 13.4983 8.305 12.655 8.965 12.105C9.66167 11.5183 10.5783 11.225 11.715 11.225H31.13C32.0833 11.225 32.8167 11.4267 33.33 11.83C33.8433 12.1967 34.1 12.7467 34.1 13.48C34.1 14.5433 33.7883 15.3683 33.165 15.955C32.5783 16.5417 31.79 16.835 30.8 16.835H14.135L12.43 27.505H27.39C28.3433 27.505 29.0583 27.7067 29.535 28.11C30.0483 28.4767 30.305 29.0267 30.305 29.76C30.305 30.8233 29.9933 31.6483 29.37 32.235C28.7833 32.8217 27.995 33.115 27.005 33.115H11.55L9.735 44.39H25.85C26.8033 44.39 27.5367 44.5917 28.05 44.995C28.5633 45.3617 28.82 45.9117 28.82 46.645C28.82 47.7083 28.5083 48.5333 27.885 49.12C27.2983 49.7067 26.51 50 25.52 50H6.215ZM38.3174 50.44C37.2907 50.44 36.5024 50.11 35.9524 49.45C35.439 48.7533 35.274 47.7817 35.4574 46.535L40.6824 13.755C40.8657 12.7283 41.2324 11.9767 41.7824 11.5C42.369 11.0233 43.084 10.785 43.9274 10.785C44.8441 10.785 45.5224 10.9683 45.9624 11.335C46.439 11.665 46.9157 12.215 47.3924 12.985L63.8374 40.87H62.4624L66.6974 14.03C66.8807 12.93 67.2841 12.1233 67.9074 11.61C68.5307 11.06 69.3924 10.785 70.4924 10.785C71.5191 10.785 72.2524 11.1333 72.6924 11.83C73.1691 12.49 73.3157 13.425 73.1324 14.635L67.9624 47.36C67.8157 48.3867 67.4857 49.1567 66.9724 49.67C66.4591 50.1833 65.7807 50.44 64.9374 50.44C64.0207 50.44 63.2874 50.2567 62.7374 49.89C62.1874 49.5233 61.6741 48.9367 61.1974 48.13L44.7524 20.355H46.1274L41.8924 47.195C41.7457 48.295 41.3791 49.12 40.7924 49.67C40.2424 50.1833 39.4174 50.44 38.3174 50.44Z" fill="#18212E"/>
<path d="M90.615 65.55C87.1683 65.55 84.1067 64.9083 81.43 63.625C78.79 62.305 76.7 60.3433 75.16 57.74C73.6567 55.1367 72.905 51.8733 72.905 47.95C72.905 44.7967 73.3633 41.8817 74.28 39.205C75.2333 36.4917 76.59 34.1267 78.35 32.11C80.1467 30.0933 82.3467 28.5167 84.95 27.38C87.5533 26.2433 90.505 25.675 93.805 25.675C95.9317 25.675 97.9667 25.95 99.91 26.5C101.853 27.05 103.558 27.8567 105.025 28.92C105.685 29.3967 106.088 29.965 106.235 30.625C106.418 31.2483 106.418 31.8717 106.235 32.495C106.052 33.1183 105.74 33.6683 105.3 34.145C104.897 34.585 104.402 34.86 103.815 34.97C103.228 35.0433 102.623 34.8783 102 34.475C100.57 33.5217 99.1767 32.8617 97.82 32.495C96.4633 32.1283 95.0517 31.945 93.585 31.945C90.7617 31.945 88.36 32.6417 86.38 34.035C84.4367 35.3917 82.9517 37.2617 81.925 39.645C80.8983 42.0283 80.385 44.7233 80.385 47.73C80.385 50.4433 80.7883 52.6617 81.595 54.385C82.4383 56.0717 83.6667 57.3183 85.28 58.125C86.93 58.895 88.9283 59.28 91.275 59.28C92.6317 59.28 93.9333 59.115 95.18 58.785C96.4267 58.455 97.71 57.905 99.03 57.135C99.7633 56.695 100.423 56.53 101.01 56.64C101.633 56.7133 102.147 56.97 102.55 57.41C102.953 57.85 103.21 58.3817 103.32 59.005C103.467 59.5917 103.412 60.1967 103.155 60.82C102.935 61.4067 102.495 61.92 101.835 62.36C100.222 63.4233 98.4067 64.23 96.39 64.78C94.3733 65.2933 92.4483 65.55 90.615 65.55ZM125.138 65.55C122.681 65.55 120.463 65.2017 118.483 64.505C116.539 63.7717 114.908 62.69 113.588 61.26C112.304 59.7933 111.406 57.9783 110.893 55.815C110.416 53.615 110.416 51.0483 110.893 48.115L113.918 29.085C114.101 27.9483 114.504 27.1233 115.128 26.61C115.788 26.06 116.668 25.785 117.768 25.785C118.941 25.785 119.784 26.115 120.298 26.775C120.848 27.435 121.031 28.4067 120.848 29.69L117.878 48.61C117.328 52.1667 117.694 54.88 118.978 56.75C120.298 58.5833 122.516 59.5 125.633 59.5C128.639 59.5 131.004 58.73 132.728 57.19C134.488 55.6133 135.643 53.1383 136.193 49.765L139.493 29.085C139.676 27.9483 140.079 27.1233 140.703 26.61C141.363 26.06 142.243 25.785 143.343 25.785C144.479 25.785 145.304 26.115 145.818 26.775C146.368 27.435 146.551 28.4067 146.368 29.69L143.233 49.655C142.683 53.1017 141.674 56.0167 140.208 58.4C138.778 60.7467 136.816 62.525 134.323 63.735C131.866 64.945 128.804 65.55 125.138 65.55ZM152.598 65.44C151.498 65.44 150.673 65.0733 150.123 64.34C149.61 63.6067 149.463 62.58 149.683 61.26L154.688 29.745C154.872 28.5717 155.312 27.6917 156.008 27.105C156.705 26.5183 157.64 26.225 158.813 26.225H170.363C174.653 26.225 177.898 27.1783 180.098 29.085C182.335 30.9917 183.453 33.6133 183.453 36.95C183.453 39.7733 182.812 42.1017 181.528 43.935C180.282 45.7683 178.54 47.1433 176.303 48.06C174.103 48.94 171.592 49.3617 168.768 49.325V48.5H170.198C171.922 48.5 173.333 48.995 174.433 49.985C175.533 50.9383 176.413 52.2767 177.073 54L179.713 60.875C180.08 61.8283 180.208 62.6533 180.098 63.35C180.025 64.01 179.713 64.5233 179.163 64.89C178.613 65.2567 177.843 65.44 176.853 65.44C175.9 65.44 175.13 65.2017 174.543 64.725C173.993 64.2117 173.517 63.4233 173.113 62.36L169.593 53.12C169.117 51.8 168.475 50.865 167.668 50.315C166.862 49.765 165.725 49.49 164.258 49.49H158.593L156.668 61.92C156.485 63.0933 156.045 63.9733 155.348 64.56C154.688 65.1467 153.772 65.44 152.598 65.44ZM159.418 44.265H168.768C171.262 44.265 173.187 43.6967 174.543 42.56C175.937 41.3867 176.633 39.7 176.633 37.5C176.633 35.5933 176.047 34.1633 174.873 33.21C173.7 32.2567 171.848 31.78 169.318 31.78H161.398L159.418 44.265ZM198.634 65.44C197.497 65.44 196.672 65.0733 196.159 64.34C195.646 63.6067 195.481 62.5983 195.664 61.315L200.284 32.11H190.109C189.119 32.11 188.349 31.89 187.799 31.45C187.249 31.01 186.974 30.4233 186.974 29.69C186.974 28.59 187.286 27.7467 187.909 27.16C188.569 26.5367 189.431 26.225 190.494 26.225H218.434C219.424 26.225 220.194 26.4267 220.744 26.83C221.294 27.2333 221.569 27.82 221.569 28.59C221.569 29.69 221.257 30.5517 220.634 31.175C220.011 31.7983 219.149 32.11 218.049 32.11H207.324L202.594 61.92C202.411 63.0567 201.989 63.9367 201.329 64.56C200.706 65.1467 199.807 65.44 198.634 65.44ZM223.994 65C222.674 65 221.721 64.6517 221.134 63.955C220.548 63.2583 220.346 62.2683 220.529 60.985L225.479 29.635C225.663 28.4983 226.084 27.655 226.744 27.105C227.441 26.5183 228.358 26.225 229.494 26.225H248.909C249.863 26.225 250.596 26.4267 251.109 26.83C251.623 27.1967 251.879 27.7467 251.879 28.48C251.879 29.5433 251.568 30.3683 250.944 30.955C250.358 31.5417 249.569 31.835 248.579 31.835H231.914L230.209 42.505H245.169C246.123 42.505 246.838 42.7067 247.314 43.11C247.828 43.4767 248.084 44.0267 248.084 44.76C248.084 45.8233 247.773 46.6483 247.149 47.235C246.563 47.8217 245.774 48.115 244.784 48.115H229.329L227.514 59.39H243.629C244.583 59.39 245.316 59.5917 245.829 59.995C246.343 60.3617 246.599 60.9117 246.599 61.645C246.599 62.7083 246.288 63.5333 245.664 64.12C245.078 64.7067 244.289 65 243.299 65H223.994Z" fill="#0093A7"/>
<path d="M78 14C78 12.3431 79.3431 11 81 11H250C251.657 11 253 12.3431 253 14V14C253 15.6569 251.657 17 250 17H81C79.3431 17 78 15.6569 78 14V14Z" fill="#18212E"/>
<rect x="2" y="59" width="69" height="6" rx="3" fill="#0093A7"/>
</svg>
